<svg width="19" height="18" viewBox="0 0 19 18" fill="none" xmlns="http://www.w3.org/2000/svg">
<path d="M8.02732 3.276C8.66392 2.6554 9.46054 2.21396 10.3331 1.99826C11.2056 1.78257 12.1216 1.80064 12.9845 2.05056C13.8474 2.30048 14.625 2.77298 15.2354 3.41817C15.8457 4.06336 16.2661 4.85731 16.4522 5.71617C16.6382 6.57504 16.583 7.46697 16.2924 8.29778C16.0018 9.12859 15.4866 9.86746 14.8011 10.4364C14.1156 11.0053 13.2853 11.3832 12.3979 11.5301C11.5104 11.677 10.5988 11.5875 9.75921 11.271L9.55234 11.1885L9.53696 11.1855H9.06784V12.369C9.06795 12.6011 8.97978 12.825 8.82038 12.9973C8.66099 13.1697 8.44171 13.2782 8.20497 13.302L8.10653 13.3065H6.89297V14.49C6.89308 14.7221 6.80491 14.946 6.64552 15.1183C6.48612 15.2907 6.26684 15.3992 6.0301 15.423L5.93167 15.4275H2.86855C2.67719 15.4275 2.49257 15.3586 2.35008 15.234C2.20759 15.1095 2.11727 14.938 2.09642 14.7525L2.09181 14.67V12.7125C2.09181 12.4524 2.18421 12.2004 2.35329 11.9992L2.43019 11.9167L6.65995 7.791L6.66764 7.76325C6.67002 7.74297 6.66898 7.72245 6.66457 7.7025C6.49814 6.91232 6.53553 6.0942 6.77338 5.3216C7.01124 4.549 7.44211 3.84609 8.02732 3.276ZM11.2896 5.397C11.1825 5.5015 11.0976 5.62555 11.0396 5.76206C10.9817 5.89858 10.9519 6.04489 10.9519 6.19264C10.9519 6.34039 10.9818 6.48668 11.0398 6.62317C11.0978 6.75966 11.1829 6.88367 11.29 6.98812C11.3972 7.09257 11.5244 7.17542 11.6643 7.23193C11.8043 7.28844 11.9543 7.3175 12.1059 7.31747C12.2574 7.31743 12.4074 7.2883 12.5473 7.23172C12.6873 7.17515 12.8144 7.09225 12.9215 6.98775C13.1316 6.77547 13.2477 6.49124 13.2449 6.19627C13.2422 5.9013 13.1207 5.61919 12.9067 5.4107C12.6927 5.20222 12.4034 5.08403 12.1009 5.08161C11.7984 5.07919 11.5071 5.19197 11.2896 5.397Z" fill="black"/>
</svg>
