<svg width="17" height="18" viewBox="0 0 17 18" fill="none" xmlns="http://www.w3.org/2000/svg">
<path d="M6.92948 10.6607V17.2212H0C0 13.5979 3.10243 10.6607 6.92948 10.6607ZM6.92948 9.84068C4.05808 9.84068 1.73237 7.63883 1.73237 4.92034C1.73237 2.20185 4.05808 0 6.92948 0C9.80088 0 12.1266 2.20185 12.1266 4.92034C12.1266 7.63883 9.80088 9.84068 6.92948 9.84068ZM15.1116 15.6073L16.4139 16.8403L15.189 18L13.8867 16.767C13.3709 17.0556 12.7691 17.2212 12.1266 17.2212C10.2131 17.2212 8.66185 15.7526 8.66185 13.941C8.66185 12.1294 10.2131 10.6607 12.1266 10.6607C14.0401 10.6607 15.5913 12.1294 15.5913 13.941C15.5913 14.5493 15.4164 15.119 15.1116 15.6073ZM12.1266 15.5811C13.0834 15.5811 13.859 14.8468 13.859 13.941C13.859 13.0351 13.0834 12.3009 12.1266 12.3009C11.1698 12.3009 10.3942 13.0351 10.3942 13.941C10.3942 14.8468 11.1698 15.5811 12.1266 15.5811Z" fill="black"/>
</svg>
