<svg width="18" height="18" viewBox="0 0 18 18" fill="none" xmlns="http://www.w3.org/2000/svg">
<path d="M16.0418 0H1.78242C0.80209 0 0 0.759375 0 1.6875V16.3125C0 17.2406 0.80209 18 1.78242 18H16.0418C17.0221 18 17.8242 17.2406 17.8242 16.3125V1.6875C17.8242 0.759375 17.0221 0 16.0418 0ZM15.4477 15.75H2.37656V2.25H15.4477V15.75ZM4.75313 10.125H13.0711V11.25H4.75313V10.125ZM4.75313 12.375H13.0711V13.5H4.75313V12.375ZM5.94141 5.0625C5.94148 4.84082 5.98768 4.62133 6.07736 4.41655C6.16703 4.21177 6.29844 4.02572 6.46406 3.86902C6.62968 3.71233 6.82629 3.58805 7.04264 3.50328C7.259 3.41852 7.49087 3.37493 7.72502 3.375C7.95917 3.37507 8.19101 3.41881 8.4073 3.50371C8.6236 3.58861 8.82011 3.71302 8.98563 3.86982C9.15114 4.02662 9.28241 4.21276 9.37194 4.41759C9.46147 4.62242 9.50752 4.84195 9.50744 5.06362C9.50728 5.51133 9.31928 5.94063 8.98479 6.2571C8.65029 6.57357 8.19671 6.75127 7.72383 6.75112C7.25094 6.75098 6.79749 6.57298 6.46322 6.25631C6.12895 5.93963 5.94125 5.5102 5.94141 5.0625ZM8.91211 6.75H6.53555C5.55522 6.75 4.75313 7.25625 4.75313 7.875V9H10.6945V7.875C10.6945 7.25625 9.89244 6.75 8.91211 6.75Z" fill="black"/>
</svg>
