<svg width="16" height="16" viewBox="0 0 16 16" fill="none" xmlns="http://www.w3.org/2000/svg">
<path d="M10.8914 4.18359C10.8914 4.10625 10.8245 4.04297 10.7429 4.04297H9.73096C9.67526 4.04297 9.62327 4.07285 9.59913 4.12031L8.02652 7.0875H7.96525L6.39263 4.12031C6.38031 4.09717 6.36149 4.07771 6.33823 4.06406C6.31496 4.05041 6.28817 4.04311 6.2608 4.04297H5.22663C5.20249 4.04297 5.17835 4.04824 5.15607 4.06055C5.08366 4.09746 5.05767 4.18359 5.09666 4.25039L7.02576 7.61836H5.96745C5.88575 7.61836 5.81891 7.68164 5.81891 7.75898V8.23535C5.81891 8.3127 5.88575 8.37598 5.96745 8.37598H7.37853V9.06152H5.96745C5.88575 9.06152 5.81891 9.1248 5.81891 9.20215V9.67852C5.81891 9.75586 5.88575 9.81914 5.96745 9.81914H7.37853V10.9336C7.37853 11.0109 7.44537 11.0742 7.52707 11.0742H8.45355C8.53525 11.0742 8.60209 11.0109 8.60209 10.9336V9.81738H10.0187C10.1004 9.81738 10.1673 9.7541 10.1673 9.67676V9.20039C10.1673 9.12305 10.1004 9.05977 10.0187 9.05977H8.60209V8.37422H10.0187C10.1004 8.37422 10.1673 8.31094 10.1673 8.23359V7.75723C10.1673 7.67988 10.1004 7.6166 10.0187 7.6166H8.94929L10.8747 4.24863C10.884 4.2293 10.8914 4.20645 10.8914 4.18359ZM1.40927 7.42148C1.44415 5.81943 2.13285 4.29238 3.33095 3.16055C3.93437 2.58926 4.6362 2.13926 5.41787 1.82637C6.22738 1.50293 7.08703 1.3377 7.97267 1.3377C8.86017 1.3377 9.71982 1.50117 10.5275 1.82637C11.3091 2.13926 12.011 2.58926 12.6144 3.16055C12.8001 3.33633 12.9727 3.5209 13.1324 3.7125L12.2041 4.3998C12.182 4.416 12.1651 4.43778 12.1555 4.46263C12.1459 4.48749 12.1439 4.51441 12.1497 4.5403C12.1555 4.56619 12.1689 4.59 12.1884 4.60899C12.2079 4.62798 12.2326 4.64139 12.2598 4.64766L15.1711 5.3209C15.2639 5.34199 15.3549 5.2752 15.3549 5.18555L15.3697 2.34668C15.3697 2.22891 15.2268 2.16211 15.1302 2.23594L14.2427 2.89336C12.7871 1.13027 10.5201 0 7.97453 0C3.62059 0 0.0798841 3.30645 4.64284e-05 7.41445C-0.000449131 7.43321 0.00302664 7.45188 0.010269 7.46935C0.0175114 7.48682 0.0283739 7.50274 0.0422163 7.51617C0.0560587 7.5296 0.0726012 7.54028 0.0908687 7.54756C0.109136 7.55485 0.128759 7.5586 0.148582 7.55859H1.2626C1.34243 7.55859 1.40742 7.49707 1.40927 7.42148ZM15.819 7.55859H14.705C14.6252 7.55859 14.5584 7.62012 14.5565 7.6957C14.5216 9.29776 13.8329 10.8248 12.6348 11.9566C12.0369 12.525 11.3282 12.9782 10.5479 13.2908C9.73838 13.6143 8.87874 13.7795 7.9931 13.7795C7.10745 13.7795 6.24595 13.616 5.43829 13.2908C4.658 12.9782 3.94925 12.525 3.35137 11.9566C3.1657 11.7809 2.99303 11.5963 2.83336 11.4047L3.75984 10.7174C3.78196 10.7012 3.7988 10.6794 3.80842 10.6546C3.81804 10.6297 3.82006 10.6028 3.81424 10.5769C3.80842 10.551 3.795 10.5272 3.77553 10.5082C3.75605 10.4892 3.73131 10.4758 3.70414 10.4695L0.792853 9.79629C0.700018 9.7752 0.609041 9.84199 0.609041 9.93164L0.594187 12.774C0.594187 12.8918 0.737152 12.9586 0.8337 12.8848L1.7212 12.2273C3.18056 13.9869 5.44757 15.1172 7.9931 15.1172C12.347 15.1172 15.8877 11.8107 15.9676 7.70273C15.9681 7.68397 15.9646 7.66531 15.9574 7.64784C15.9501 7.63037 15.9393 7.61445 15.9254 7.60102C15.9116 7.58758 15.895 7.57691 15.8768 7.56962C15.8585 7.56234 15.8389 7.55859 15.819 7.55859Z" fill="black"/>
</svg>
