<svg xmlns="http://www.w3.org/2000/svg" width="95" height="95" viewBox="0 0 95 95" fill="none">
  <path d="M47.5 0C21.1923 0 0 21.1923 0 47.5C0 73.8077 21.1923 95 47.5 95C73.8077 95 95 73.8077 95 47.5C95 42.3919 94.3131 37.2948 92.4862 32.5412L86.5523 38.3654C87.2831 41.2885 87.696 44.2188 87.696 47.5C87.696 69.7958 69.7994 87.6923 47.5037 87.6923C25.2079 87.6923 7.30769 69.7958 7.30769 47.5C7.30769 25.2042 25.2042 7.30769 47.5 7.30769C58.4615 7.30769 68.3087 11.674 75.2473 18.6127L80.3846 13.4754C71.9808 5.06423 60.2885 0 47.5 0ZM88.719 15.6421L47.5 56.8648L31.8579 41.219L26.6037 46.4733L44.8729 64.7425L47.5 67.2527L50.1271 64.7425L93.9733 20.8963L88.719 15.6421Z" fill="#8000D7"/>
</svg>