<svg width="88" height="88" viewBox="0 0 88 88" fill="none" xmlns="http://www.w3.org/2000/svg">
<path id="Vector" d="M44 88C19.6995 88 0 68.3003 0 44C0 19.6995 19.6995 0 44 0C68.3003 0 88 19.6995 88 44C88 68.3003 68.3003 88 44 88ZM44 79.2C63.4405 79.2 79.2 63.4405 79.2 44C79.2 24.5596 63.4405 8.8 44 8.8C24.5596 8.8 8.8 24.5596 8.8 44C8.8 63.4405 24.5596 79.2 44 79.2ZM44 37.7775L56.445 25.3324L62.6674 31.5549L50.2225 44L62.6674 56.445L56.445 62.6674L44 50.2225L31.5549 62.6674L25.3324 56.445L37.7775 44L25.3324 31.5549L31.5549 25.3324L44 37.7775Z" fill="#EB4335"/>
</svg>
