<svg width="302" height="272" viewBox="0 0 302 272" fill="none" xmlns="http://www.w3.org/2000/svg">
<g clip-path="url(#clip0_1455_11322)">
<rect width="302" height="271" transform="translate(0 0.0725098)" fill="white"/>
<path d="M299.35 103.708C299.242 103.708 299.137 103.675 299.048 103.613L152.52 1.60425C152.074 1.29527 151.544 1.13014 151.002 1.13106C150.459 1.13199 149.93 1.29892 149.485 1.60943L4.01294 103.612C3.89788 103.693 3.75547 103.725 3.61704 103.701C3.47861 103.676 3.3555 103.598 3.27479 103.483C3.19409 103.368 3.1624 103.226 3.18669 103.087C3.21099 102.949 3.28928 102.826 3.40434 102.745L148.877 0.742048C149.5 0.307405 150.241 0.0737627 151 0.0725148C151.76 0.0712669 152.502 0.302471 153.126 0.735066L299.654 102.744C299.746 102.809 299.816 102.901 299.852 103.008C299.889 103.114 299.89 103.23 299.856 103.337C299.822 103.445 299.755 103.539 299.664 103.606C299.573 103.672 299.463 103.708 299.35 103.708Z" fill="#8000D7"/>
<path d="M12.3262 107.324L151.147 4.47852L291.02 114.642L158.299 193.293L86.243 176.874L12.3262 107.324Z" fill="#FAFCFE"/>
<path d="M92.325 241.872H23.7443C23.3232 241.872 22.9061 241.79 22.5169 241.629C22.1277 241.469 21.774 241.233 21.476 240.935C21.1781 240.638 20.9417 240.284 20.7804 239.896C20.6192 239.507 20.5361 239.09 20.5361 238.669C20.5361 238.248 20.6192 237.831 20.7804 237.442C20.9417 237.053 21.1781 236.7 21.476 236.403C21.774 236.105 22.1277 235.869 22.5169 235.709C22.9061 235.548 23.3232 235.466 23.7443 235.466H92.325C92.7461 235.466 93.1631 235.548 93.5524 235.709C93.9416 235.869 94.2953 236.105 94.5932 236.403C94.8912 236.7 95.1276 237.053 95.2888 237.442C95.4501 237.831 95.5331 238.248 95.5331 238.669C95.5331 239.09 95.4501 239.507 95.2888 239.896C95.1276 240.284 94.8912 240.638 94.5932 240.935C94.2953 241.233 93.9416 241.469 93.5524 241.629C93.1631 241.79 92.7461 241.872 92.325 241.872Z" fill="#8000D7"/>
<path d="M48.3495 228.101H23.7443C23.3232 228.102 22.9061 228.019 22.5169 227.859C22.1277 227.698 21.774 227.462 21.476 227.165C21.1781 226.867 20.9417 226.514 20.7804 226.125C20.6192 225.736 20.5361 225.319 20.5361 224.898C20.5361 224.477 20.6192 224.061 20.7804 223.672C20.9417 223.283 21.1781 222.93 21.476 222.632C21.774 222.335 22.1277 222.099 22.5169 221.938C22.9061 221.777 23.3232 221.695 23.7443 221.696H48.3495C48.7706 221.695 49.1877 221.777 49.5769 221.938C49.9661 222.099 50.3198 222.335 50.6178 222.632C50.9157 222.93 51.1521 223.283 51.3134 223.672C51.4747 224.061 51.5577 224.477 51.5577 224.898C51.5577 225.319 51.4747 225.736 51.3134 226.125C51.1521 226.514 50.9157 226.867 50.6178 227.165C50.3198 227.462 49.9661 227.698 49.5769 227.859C49.1877 228.019 48.7706 228.102 48.3495 228.101Z" fill="#8000D7"/>
<path d="M153.098 164.608C152.577 164.609 152.06 164.508 151.578 164.31L65.9629 128.799V17.6429C65.964 16.6599 66.3551 15.7176 67.0504 15.0226C67.7457 14.3275 68.6884 13.9366 69.6717 13.9354H233.917C234.901 13.9366 235.843 14.3275 236.539 15.0226C237.234 15.7176 237.625 16.6599 237.626 17.6429V128.877L237.465 128.945L154.664 164.293C154.168 164.501 153.636 164.608 153.098 164.608Z" fill="#FAFCFE"/>
<path d="M153.098 164.873C152.542 164.873 151.992 164.766 151.477 164.556L65.6982 128.976V17.6429C65.6994 16.5898 66.1185 15.5801 66.8634 14.8354C67.6084 14.0907 68.6184 13.6718 69.6719 13.6707H233.918C234.971 13.6718 235.981 14.0907 236.726 14.8354C237.471 15.5801 237.89 16.5898 237.891 17.6429V129.052L154.768 164.536C154.24 164.759 153.672 164.873 153.098 164.873ZM66.7579 128.269L151.881 163.576C152.675 163.898 153.564 163.893 154.354 163.562L236.832 128.352V17.6429C236.831 16.8706 236.523 16.1302 235.977 15.5841C235.431 15.038 234.69 14.7308 233.918 14.7299H69.6719C68.8994 14.7308 68.1587 15.038 67.6124 15.5841C67.0661 16.1302 66.7588 16.8706 66.7579 17.6429L66.7579 128.269Z" fill="#8000D7"/>
<path d="M298.291 102.649H298.185L237.361 128.612L154.142 164.134C153.817 164.271 153.468 164.342 153.115 164.344C152.762 164.346 152.413 164.278 152.086 164.145L66.2281 128.538L3.91004 102.692L3.81484 102.649H3.70877C2.72548 102.65 1.78277 103.041 1.08748 103.736C0.392183 104.431 0.00109104 105.374 0 106.357V267.365C0.00109244 268.348 0.392183 269.29 1.08748 269.985C1.78277 270.68 2.72548 271.071 3.70877 271.073H298.291C299.275 271.071 300.217 270.68 300.913 269.985C301.608 269.29 301.999 268.348 302 267.365V106.357C301.999 105.374 301.608 104.431 300.913 103.736C300.217 103.041 299.275 102.65 298.291 102.649ZM300.94 267.365C300.94 268.067 300.661 268.741 300.164 269.237C299.667 269.734 298.994 270.013 298.291 270.013H3.70877C3.00627 270.013 2.33262 269.734 1.83587 269.237C1.33913 268.741 1.05993 268.067 1.05965 267.365V106.357C1.06061 105.672 1.32634 105.014 1.80129 104.52C2.27623 104.027 2.92362 103.736 3.60814 103.708L66.2281 129.682L151.678 165.125C152.603 165.501 153.64 165.495 154.561 165.109L237.361 129.761L298.397 103.708C299.081 103.738 299.726 104.03 300.2 104.523C300.674 105.016 300.939 105.673 300.94 106.357V267.365Z" fill="#8000D7"/>
<path d="M152.242 133.088C149.082 133.094 146.005 132.073 143.476 130.177L143.319 130.06L110.305 104.792C108.776 103.621 107.493 102.161 106.529 100.494C105.565 98.827 104.938 96.9866 104.685 95.0778C104.433 93.169 104.558 91.2292 105.056 89.369C105.553 87.5088 106.412 85.7647 107.583 84.2363C108.755 82.7079 110.216 81.4252 111.883 80.4613C113.551 79.4974 115.392 78.8712 117.301 78.6185C119.211 78.3659 121.151 78.4916 123.012 78.9886C124.873 79.4857 126.618 80.3442 128.147 81.5153L149.531 97.9062L200.064 32.0269C201.236 30.4989 202.698 29.2166 204.365 28.2533C206.033 27.29 207.874 26.6645 209.784 26.4125C211.694 26.1605 213.634 26.287 215.495 26.7847C217.355 27.2824 219.1 28.1417 220.628 29.3133L220.314 29.7397L220.636 29.3195C223.72 31.6883 225.737 35.183 226.246 39.0369C226.755 42.8907 225.714 46.789 223.351 49.8764L163.911 127.366C162.537 129.152 160.769 130.597 158.745 131.589C156.722 132.582 154.496 133.095 152.242 133.088Z" fill="#8000D7"/>
</g>
<defs>
<clipPath id="clip0_1455_11322">
<rect width="302" height="271" fill="white" transform="translate(0 0.0725098)"/>
</clipPath>
</defs>
</svg>
