<svg width="13" height="13" viewBox="0 0 13 13" fill="none" xmlns="http://www.w3.org/2000/svg">
<path d="M4.8995 4.92251C5.02881 4.55493 5.28403 4.24497 5.61998 4.04753C5.95592 3.8501 6.35089 3.77793 6.73495 3.8438C7.119 3.90968 7.46735 4.10935 7.71829 4.40745C7.96924 4.70555 8.10658 5.08285 8.106 5.47251C8.106 6.57251 6.456 7.12251 6.456 7.12251M6.5 9.32251H6.5055M12 6.57251C12 9.61008 9.53757 12.0725 6.5 12.0725C3.46243 12.0725 1 9.61008 1 6.57251C1 3.53494 3.46243 1.07251 6.5 1.07251C9.53757 1.07251 12 3.53494 12 6.57251Z" stroke="#818181" stroke-width="1.1" stroke-linecap="round" stroke-linejoin="round"/>
</svg>
