<svg width="66" height="66" viewBox="0 0 66 66" fill="none" xmlns="http://www.w3.org/2000/svg">
<circle cx="33" cy="33" r="33" fill="#8000D7" fill-opacity="0.22"/>
<circle cx="33" cy="33" r="28" fill="#8000D7"/>
<path d="M47.0019 31.2482H50.5019C50.5019 22.2707 43.7241 15.5 34.7344 15.5V19C41.8429 19 47.0019 24.1502 47.0019 31.2482Z" fill="white"/>
<path d="M34.7505 26.0001C38.4307 26.0001 40.0005 27.5698 40.0005 31.2501H43.5005C43.5005 25.6063 40.3942 22.5001 34.7505 22.5001V26.0001ZM40.739 35.5253C40.4027 35.2197 39.9608 35.0567 39.5067 35.0707C39.0525 35.0847 38.6215 35.2747 38.3047 35.6006L34.117 39.9073C33.109 39.7148 31.0825 39.0831 28.9965 37.0023C26.9105 34.9146 26.2787 32.8828 26.0915 31.8818L30.3947 27.6923C30.721 27.3758 30.9112 26.9447 30.9253 26.4904C30.9393 26.0361 30.776 25.5941 30.47 25.2581L24.0037 18.1478C23.6976 17.8107 23.272 17.6062 22.8175 17.5778C22.363 17.5493 21.9153 17.6992 21.5695 17.9956L17.772 21.2523C17.4694 21.556 17.2889 21.9601 17.2645 22.3881C17.2382 22.8256 16.7377 33.1891 24.7737 41.2286C31.7842 48.2373 40.5657 48.75 42.9842 48.75C43.3377 48.75 43.5547 48.7395 43.6125 48.736C44.0404 48.7121 44.4443 48.5307 44.7465 48.2268L48.0015 44.4276C48.2981 44.082 48.4482 43.6344 48.4201 43.1799C48.392 42.7254 48.1879 42.2997 47.851 41.9933L40.739 35.5253Z" fill="white"/>
</svg>
