<svg width="66" height="66" viewBox="0 0 66 66" fill="none" xmlns="http://www.w3.org/2000/svg">
<circle cx="33" cy="33" r="33" fill="#8000D7" fill-opacity="0.22"/>
<circle cx="33" cy="33" r="28" fill="#8000D7"/>
<path fill-rule="evenodd" clip-rule="evenodd" d="M12.4896 26.2698C15.1524 23.5227 18.3408 21.3394 21.8648 19.8499C25.3888 18.3604 29.1765 17.5951 33.0024 17.5996C41.0478 17.5996 48.321 20.9238 53.5152 26.2698C53.8172 26.5809 53.9846 26.9982 53.9813 27.4317C53.978 27.8652 53.8043 28.28 53.4976 28.5864L52.721 29.3652C52.5663 29.5201 52.3823 29.6426 52.1798 29.7256C51.9773 29.8087 51.7603 29.8506 51.5414 29.849C51.3226 29.8473 51.1062 29.8022 50.9049 29.7161C50.7037 29.63 50.5216 29.5048 50.3692 29.3476C45.9692 24.8156 39.8158 21.9996 33.0024 21.9996C26.189 21.9996 20.0356 24.8156 15.6356 29.3476C15.4832 29.5048 15.3011 29.63 15.0999 29.7161C14.8986 29.8022 14.6823 29.8473 14.4634 29.849C14.2445 29.8506 14.0275 29.8087 13.825 29.7256C13.6225 29.6426 13.4385 29.5201 13.2838 29.3652L12.5072 28.5864C12.2005 28.28 12.0268 27.8652 12.0235 27.4317C12.0202 26.9982 12.1876 26.5809 12.4896 26.2698ZM18.7046 32.5024C20.5509 30.5707 22.7701 29.0339 25.2277 27.9849C27.6853 26.9359 30.3303 26.3966 33.0024 26.3996C35.6745 26.3966 38.3195 26.9359 40.7771 27.9849C43.2347 29.0339 45.4539 30.5707 47.3002 32.5024C47.5987 32.8139 47.7633 33.2299 47.7587 33.6613C47.7542 34.0926 47.5809 34.5051 47.276 34.8102L46.4972 35.589C46.3418 35.7443 46.157 35.867 45.9535 35.9499C45.7501 36.0328 45.5321 36.0742 45.3125 36.0718C45.0928 36.0693 44.8758 36.023 44.6743 35.9356C44.4727 35.8481 44.2907 35.7214 44.1388 35.5626C42.7026 34.055 40.9747 32.8552 39.0602 32.0364C37.1457 31.2176 35.0847 30.7968 33.0024 30.7996C28.6244 30.7996 24.6732 32.6256 21.8682 35.5626C21.7163 35.7217 21.5341 35.8488 21.3324 35.9364C21.1306 36.024 20.9134 36.0704 20.6935 36.0729C20.4735 36.0753 20.2553 36.0338 20.0517 35.9507C19.848 35.8676 19.663 35.7446 19.5076 35.589L18.7288 34.8102C18.4235 34.5047 18.2502 34.0916 18.2461 33.6597C18.242 33.2278 18.4074 32.8115 18.7068 32.5002L18.7046 32.5024ZM24.9086 38.7504C25.9379 37.6299 27.189 36.7356 28.5823 36.1243C29.9757 35.5131 31.4809 35.1982 33.0024 35.1996C36.2056 35.1996 39.0898 36.5702 41.0984 38.7504C41.3871 39.0639 41.5433 39.477 41.5343 39.9031C41.5253 40.3292 41.3517 40.7352 41.05 41.0362L40.2712 41.815C40.1133 41.9728 39.925 42.0969 39.7178 42.1798C39.5105 42.2627 39.2886 42.3027 39.0655 42.2973C38.8423 42.292 38.6226 42.2414 38.4195 42.1487C38.2165 42.0559 38.0344 41.923 37.8842 41.7578C37.2665 41.0769 36.5129 40.5331 35.6721 40.1613C34.8312 39.7896 33.9218 39.5982 33.0024 39.5996C31.0664 39.5996 29.3284 40.429 28.1184 41.7578C27.9683 41.9226 27.7863 42.0553 27.5834 42.1478C27.3806 42.2404 27.1611 42.2908 26.9382 42.2962C26.7154 42.3015 26.4937 42.2616 26.2867 42.1789C26.0796 42.0962 25.8915 41.9725 25.7336 41.815L24.9548 41.0362C24.6534 40.7349 24.4803 40.3287 24.4717 39.9026C24.463 39.4765 24.6196 39.0637 24.9086 38.7504ZM31.0576 44.8048C31.3127 44.5489 31.6158 44.3458 31.9495 44.2072C32.2832 44.0686 32.6411 43.9973 33.0024 43.9973C33.3638 43.9973 33.7216 44.0686 34.0553 44.2072C34.389 44.3458 34.6921 44.5489 34.9472 44.8048C35.2562 45.1142 35.4298 45.5336 35.4298 45.9708C35.4298 46.4081 35.2562 46.8275 34.9472 47.1368L34.1684 47.9156C33.859 48.2246 33.4397 48.3982 33.0024 48.3982C32.5652 48.3982 32.1458 48.2246 31.8364 47.9156L31.0576 47.139C30.7486 46.8297 30.5751 46.4103 30.5751 45.973C30.5751 45.5358 30.7486 45.1142 31.0576 44.8048Z" fill="white"/>
</svg>
