<svg width="66" height="66" viewBox="0 0 66 66" fill="none" xmlns="http://www.w3.org/2000/svg">
<circle cx="33" cy="33" r="33" fill="#8000D7" fill-opacity="0.22"/>
<circle cx="33" cy="33" r="28" fill="#8000D7"/>
<path d="M29.1667 42.5V42.2949C29.1667 40.7712 28.216 39.4429 27.0258 38.4923C25.4722 37.2533 24.3422 35.5621 23.7921 33.6527C23.2421 31.7433 23.2991 29.7101 23.9554 27.8345C24.6117 25.959 25.8348 24.3338 27.4554 23.184C29.076 22.0341 31.0139 21.4164 33.001 21.4164C34.988 21.4164 36.926 22.0341 38.5465 23.184C40.1671 24.3338 41.3902 25.959 42.0465 27.8345C42.7028 29.7101 42.7598 31.7433 42.2098 33.6527C41.6597 35.5621 40.5297 37.2533 38.9762 38.4923C37.784 39.4448 36.8333 40.7712 36.8333 42.2949V42.5M29.1667 42.5V46.3333C29.1667 46.8417 29.3686 47.3292 29.728 47.6886C30.0875 48.0481 30.575 48.25 31.0833 48.25H34.9167C35.425 48.25 35.9125 48.0481 36.272 47.6886C36.6314 47.3292 36.8333 46.8417 36.8333 46.3333V42.5M29.1667 42.5H36.8333M48.3333 31H50.25M17.6667 31H15.75M33 15.6667V13.75M43.8426 20.1574L45.1977 18.8023M22.1593 20.1574L20.8023 18.8023M33 36.75V32.9167" stroke="white" stroke-width="2" stroke-linecap="round" stroke-linejoin="round"/>
</svg>
