<svg width="15" height="15" viewBox="0 0 15 15" fill="none" xmlns="http://www.w3.org/2000/svg">
<path d="M6.3252 10.6209C6.58525 10.9545 6.99228 11.175 7.44454 11.175C8.22469 11.175 8.85785 10.5418 8.85785 9.76164C8.85785 9.4394 8.75044 9.13978 8.56954 8.90234" stroke="#03781D" stroke-width="0.847989" stroke-linecap="round" stroke-linejoin="round"/>
<path d="M2.25556 12.4747C1.91071 12.045 1.79199 11.361 1.79199 10.3264V9.19577C1.79199 6.93447 2.35732 6.36914 4.61862 6.36914H10.2719C10.4754 6.36914 10.662 6.37479 10.8372 6.3861C12.6293 6.48786 13.0985 7.13798 13.0985 9.19577V10.3264C13.0985 12.5877 12.5332 13.1531 10.2719 13.1531H4.61862C4.4151 13.1531 4.22855 13.1474 4.0533 13.1361" stroke="#03781D" stroke-width="0.847989" stroke-linecap="round" stroke-linejoin="round"/>
<path d="M4.05273 6.37026V5.23961C4.05273 3.36838 4.61806 1.84766 7.44469 1.84766C9.79079 1.84766 10.5766 2.62781 10.7801 3.86022" stroke="#03781D" stroke-width="0.847989" stroke-linecap="round" stroke-linejoin="round"/>
<path d="M13.0985 1.84766L1.79199 13.1542" stroke="#03781D" stroke-width="0.847989" stroke-linecap="round" stroke-linejoin="round"/>
</svg>
