<svg width="11" height="11" viewBox="0 0 11 11" fill="none" xmlns="http://www.w3.org/2000/svg">
<path d="M5.40144 10.4083C8.11221 10.4083 10.3097 8.21084 10.3097 5.50007C10.3097 2.78931 8.11221 0.591797 5.40144 0.591797C2.69067 0.591797 0.493164 2.78931 0.493164 5.50007C0.493164 8.21084 2.69067 10.4083 5.40144 10.4083Z" fill="#FFF1A1" stroke="#FFDD15" stroke-width="0.359313" stroke-miterlimit="2.61313" stroke-linecap="round" stroke-linejoin="round"/>
<path fill-rule="evenodd" clip-rule="evenodd" d="M0.493164 5.50007H5.40144V0.591797C2.69057 0.591797 0.493164 2.78934 0.493164 5.50007Z" fill="white" stroke="#FFDD15" stroke-width="0.359313" stroke-miterlimit="2.61313" stroke-linecap="round" stroke-linejoin="round"/>
<path d="M5.40107 7.70838C6.62089 7.70838 7.60975 6.71952 7.60975 5.4997C7.60975 4.27988 6.62089 3.29102 5.40107 3.29102C4.18124 3.29102 3.19238 4.27988 3.19238 5.4997C3.19238 6.71952 4.18124 7.70838 5.40107 7.70838Z" fill="#FFDD15"/>
</svg>
