<?xml version="1.0" encoding="utf-8"?>
<!-- Svg Vector Icons : http://www.onlinewebfonts.com/icon -->
<!DOCTYPE svg PUBLIC "-//W3C//DTD SVG 1.1//EN" "http://www.w3.org/Graphics/SVG/1.1/DTD/svg11.dtd">
<svg version="1.1" xmlns="http://www.w3.org/2000/svg" xmlns:xlink="http://www.w3.org/1999/xlink" x="0px" y="0px" viewBox="0 0 256 256" enable-background="new 0 0 256 256" xml:space="preserve">
<metadata> Svg Vector Icons : http://www.onlinewebfonts.com/icon </metadata>
<g><g><g><path fill="#000000" d="M32.2,42.5c-3.7,0.8-6.9,2.1-10,4.2c-3.8,2.5-6,4.9-8.5,8.9C9.9,62,10,59.8,10,127.8c0,38.7,0.2,62.3,0.6,64.2c1.7,8.9,8.6,16.8,17.9,20.3l3.2,1.2l64.5,0.2c35.5,0.1,64.4-0.1,64.4-0.3c0-0.2-0.4-1.7-0.8-3.2c-0.5-1.5-0.8-4.9-0.8-7.5v-4.7H96.6c-60.4,0-65.7-0.1-65.1-1.7c0.1-0.3,12.8-11.6,28.3-25.1c20.3-17.8,28.4-25.2,29.2-26.7c1.3-2.8,0.8-5.5-1.6-8.1c-1.5-1.7-2.3-2-4.6-2.2c-2.1-0.2-3.2,0.1-4.4,0.8c-0.9,0.6-13.1,11.1-27.1,23.4c-14,12.3-25.6,22.3-25.7,22.3c-0.5,0-0.3-113.1,0.2-114.2c0.3-0.8,9,6.3,49.5,40.6c36.4,30.8,49.6,41.7,51,42c1,0.2,2.6,0.2,3.7,0c1.3-0.3,14.7-11.3,51-42c44.7-37.8,49.2-41.5,49.5-40.3c0.2,0.7,0.4,14.4,0.5,30.5l0.1,29.2l4.9,0.1c3,0.1,5.8,0.5,7.4,1c1.3,0.5,2.5,0.9,2.6,0.9c0.1,0,0.2-13.9,0.2-31c0-34.6-0.1-35.9-3.7-41.9c-3.4-5.7-8.3-9.7-14.7-12.1l-3.2-1.2l-95-0.1C77.2,42.1,33.4,42.3,32.2,42.5z M214.5,58.5c-5.2,4.8-85.9,72.5-86.5,72.5S46.7,63.3,41.5,58.5c-0.7-0.7,12.4-0.8,86.5-0.8C202.1,57.7,215.2,57.8,214.5,58.5z"/><path fill="#000000" d="M181.2,141.7c-6.2,1.6-9.6,8.9-6.8,14.5c0.5,1,5.2,6.2,10.5,11.5l9.7,9.7l-9.7,9.7c-5.3,5.3-10,10.5-10.5,11.5c-1.1,2.2-1.2,6.3-0.1,8.8c1,2.4,4.3,5.2,6.9,6c2.7,0.8,3.2,0.8,6-0.1c1.9-0.5,4.3-2.6,12.4-10.7l10.2-10l9.5,9.6c5.3,5.3,10.2,9.9,11,10.3c8.8,4.7,18.7-4.5,14.9-13.7c-0.6-1.2-4.6-5.8-10.6-11.7l-9.6-9.7l9.6-9.7c6-6,10-10.5,10.6-11.7c3.3-8.1-3.8-16.2-12.5-14.4c-2.5,0.6-3.5,1.4-12.8,10.6l-10.2,10.1l-8.9-9C189.2,141.5,186.9,140.2,181.2,141.7z"/></g></g></g>
</svg>