<svg width="121" height="121" viewBox="0 0 121 121" fill="none" xmlns="http://www.w3.org/2000/svg">
<path d="M35.2917 95.7917C35.2917 87.4384 46.5778 80.6667 60.5 80.6667C74.4222 80.6667 85.7083 87.4384 85.7083 95.7917" stroke="#14181F" stroke-width="4" stroke-linecap="round" stroke-linejoin="round"/>
<path d="M60.5 65.5417C68.8533 65.5417 75.625 58.77 75.625 50.4167C75.625 42.0634 68.8533 35.2917 60.5 35.2917C52.1467 35.2917 45.375 42.0634 45.375 50.4167C45.375 58.77 52.1467 65.5417 60.5 65.5417Z" stroke="#14181F" stroke-width="4" stroke-linecap="round" stroke-linejoin="round"/>
<path d="M60.5 105.875C85.5599 105.875 105.875 85.5599 105.875 60.5C105.875 35.4401 85.5599 15.125 60.5 15.125C35.4401 15.125 15.125 35.4401 15.125 60.5C15.125 85.5599 35.4401 105.875 60.5 105.875Z" stroke="#14181F" stroke-width="4" stroke-miterlimit="10" stroke-linecap="round" stroke-linejoin="round"/>
<path d="M110 110V106H112V110H116V112H112V116H110V112H106V110H110ZM111 121C105.477 121 101 116.523 101 111C101 105.477 105.477 101 111 101C116.523 101 121 105.477 121 111C121 116.523 116.523 121 111 121ZM111 119C115.418 119 119 115.418 119 111C119 106.582 115.418 103 111 103C106.582 103 103 106.582 103 111C103 115.418 106.582 119 111 119Z" fill="black"/>
</svg>
