<svg width="35" height="35" viewBox="0 0 35 35" fill="none" xmlns="http://www.w3.org/2000/svg">
<path d="M20.4166 2.9165H8.74992C7.97637 2.9165 7.2345 3.22379 6.68752 3.77078C6.14054 4.31776 5.83325 5.05962 5.83325 5.83317V29.1665C5.83325 29.9401 6.14054 30.6819 6.68752 31.2289C7.2345 31.7759 7.97637 32.0832 8.74992 32.0832H26.2499C27.0235 32.0832 27.7653 31.7759 28.3123 31.2289C28.8593 30.6819 29.1666 29.9401 29.1666 29.1665V11.6665L20.4166 2.9165Z" stroke="black" stroke-width="2" stroke-linecap="round" stroke-linejoin="round"/>
<path d="M20.4167 2.9165V11.6665H29.1667" stroke="black" stroke-width="2" stroke-linecap="round" stroke-linejoin="round"/>
<path d="M23.3334 18.9585H11.6667" stroke="black" stroke-width="2" stroke-linecap="round" stroke-linejoin="round"/>
<path d="M23.3334 24.7915H11.6667" stroke="black" stroke-width="2" stroke-linecap="round" stroke-linejoin="round"/>
<path d="M14.5834 13.125H13.1251H11.6667" stroke="black" stroke-width="2" stroke-linecap="round" stroke-linejoin="round"/>
</svg>
