<svg width="35" height="35" viewBox="0 0 35 35" fill="none" xmlns="http://www.w3.org/2000/svg">
<path d="M5.83341 4.375H29.1667C29.9403 4.375 30.6822 4.68229 31.2291 5.22927C31.7761 5.77625 32.0834 6.51812 32.0834 7.29167V16.0417C32.0834 19.9094 30.547 23.6187 27.8121 26.3536C25.0771 29.0885 21.3678 30.625 17.5001 30.625C15.585 30.625 13.6886 30.2478 11.9193 29.5149C10.1499 28.782 8.54229 27.7078 7.18811 26.3536C4.4532 23.6187 2.91675 19.9094 2.91675 16.0417V7.29167C2.91675 6.51812 3.22404 5.77625 3.77102 5.22927C4.318 4.68229 5.05987 4.375 5.83341 4.375Z" stroke="black" stroke-width="2" stroke-linecap="round" stroke-linejoin="round"/>
<path d="M11.6667 14.5835L17.5001 20.4168L23.3334 14.5835" stroke="black" stroke-width="2" stroke-linecap="round" stroke-linejoin="round"/>
</svg>
